<svg width="29" height="30" viewBox="0 0 29 30" fill="none" xmlns="http://www.w3.org/2000/svg">
<path d="M8.31605 12.94L9.23323 13.08L8.31605 12.94ZM8.29752 13.08L7.38034 12.94L8.29752 13.08ZM21.0046 12.94L21.9218 12.8L21.0046 12.94ZM21.0232 13.08L20.106 13.22L21.0232 13.08ZM18.3661 25V26C18.6118 26 18.8475 25.8946 19.0212 25.7071C19.195 25.5196 19.2926 25.2652 19.2926 25H18.3661ZM10.9546 25H10.0281C10.0281 25.2652 10.1257 25.5196 10.2995 25.7071C10.4732 25.8946 10.7089 26 10.9546 26V25ZM9.57416 18.306L10.3079 17.694L9.57416 18.306ZM19.7465 18.306L19.0128 17.694L19.7465 18.306ZM11.881 30H17.4397V28H11.881V30ZM7.39702 12.8L7.37849 12.94L9.21285 13.22L9.23138 13.08L7.39702 12.8ZM14.6603 6C12.8941 5.99968 11.187 6.68727 9.85266 7.93647C8.51835 9.18567 7.64641 10.9126 7.39702 12.8L9.23138 13.08C9.41827 11.6697 10.0702 10.3795 11.0675 9.44634C12.0648 8.51315 13.3405 7.99961 14.6603 8V6ZM21.9237 12.8C21.6743 10.9126 20.8023 9.18567 19.468 7.93647C18.1337 6.68727 16.4266 5.99968 14.6603 6V8C15.9801 8.00002 17.2556 8.51371 18.2528 9.44682C19.25 10.3799 19.9021 11.6699 20.0893 13.08L21.9237 12.8ZM21.9422 12.94L21.9237 12.8L20.0893 13.08L20.1078 13.22L21.9422 12.94ZM20.4784 18.918C21.6457 17.29 22.235 15.168 21.9422 12.938L20.1078 13.222C20.214 14.0085 20.1718 14.8099 19.984 15.5784C19.7961 16.3469 19.4664 17.0664 19.0146 17.694L20.4784 18.918ZM17.4397 21.8V25H19.2926V21.802H17.4397V21.8ZM18.3661 24H10.9546V26H18.3661V24ZM11.881 25V21.802H10.0281V25H11.881ZM7.37849 12.94C7.23764 13.9915 7.29467 15.0628 7.54618 16.09C7.79769 17.1171 8.2385 18.079 8.84227 18.918L10.3061 17.694C9.85427 17.0664 9.52457 16.3469 9.33672 15.5784C9.14886 14.8099 9.10673 14.0085 9.21285 13.222L7.37849 12.938V12.94ZM11.881 21.8C11.881 20.154 11.0694 18.754 10.3061 17.692L8.84227 18.916C9.55193 19.906 10.0281 20.852 10.0281 21.8H11.881ZM19.0146 17.692C18.2494 18.756 17.4397 20.154 17.4397 21.8H19.2926C19.2926 20.852 19.7688 19.906 20.4784 18.916L19.0146 17.692ZM13.7339 0V4H15.5868V0H13.7339ZM0.763672 16H4.46945V14H0.763672V16ZM24.8512 16H28.557V14H24.8512V16ZM6.97826 7.292L4.19893 4.292L2.88708 5.708L5.66642 8.708L6.97826 7.292ZM23.6543 8.708L26.4336 5.708L25.1218 4.292L22.3424 7.292L23.6543 8.708Z" fill="#0B7BFF"/>
</svg>
