<svg width="12" height="12" viewBox="0 0 12 12" fill="none" xmlns="http://www.w3.org/2000/svg">
<path d="M4.28571 0H0.857143C0.383756 0 0 0.383756 0 0.857143V4.28571C0 4.7591 0.383756 5.14286 0.857143 5.14286H4.28571C4.7591 5.14286 5.14286 4.7591 5.14286 4.28571V0.857143C5.14286 0.383756 4.7591 0 4.28571 0Z" fill="#777777"/>
<path d="M11.1429 0H7.71432C7.24093 0 6.85718 0.383756 6.85718 0.857143V4.28571C6.85718 4.7591 7.24093 5.14286 7.71432 5.14286H11.1429C11.6163 5.14286 12 4.7591 12 4.28571V0.857143C12 0.383756 11.6163 0 11.1429 0Z" fill="#F1F1F1"/>
<path d="M4.28571 6.85714H0.857143C0.383756 6.85714 0 7.2409 0 7.71429V11.1429C0 11.6162 0.383756 12 0.857143 12H4.28571C4.7591 12 5.14286 11.6162 5.14286 11.1429V7.71429C5.14286 7.2409 4.7591 6.85714 4.28571 6.85714Z" fill="#F1F1F1"/>
<path d="M11.1429 6.85714H7.71432C7.24093 6.85714 6.85718 7.2409 6.85718 7.71429V11.1429C6.85718 11.6162 7.24093 12 7.71432 12H11.1429C11.6163 12 12 11.6162 12 11.1429V7.71429C12 7.2409 11.6163 6.85714 11.1429 6.85714Z" fill="#F1F1F1"/>
</svg>
