<svg width="14" height="14" viewBox="0 0 14 14" fill="none" xmlns="http://www.w3.org/2000/svg">
<path d="M1 3.4C1 2.76348 1.25286 2.15303 1.70294 1.70294C2.15303 1.25286 2.76348 1 3.4 1H10.6C11.2365 1 11.847 1.25286 12.2971 1.70294C12.7471 2.15303 13 2.76348 13 3.4V10.6C13 11.2365 12.7471 11.847 12.2971 12.2971C11.847 12.7471 11.2365 13 10.6 13H3.4C2.76348 13 2.15303 12.7471 1.70294 12.2971C1.25286 11.847 1 11.2365 1 10.6V3.4Z" stroke="#172C41" stroke-linecap="round" stroke-linejoin="round"/>
<path d="M4.90039 6.3999C5.72882 6.3999 6.40039 5.72833 6.40039 4.8999C6.40039 4.07148 5.72882 3.3999 4.90039 3.3999C4.07196 3.3999 3.40039 4.07148 3.40039 4.8999C3.40039 5.72833 4.07196 6.3999 4.90039 6.3999Z" stroke="#172C41" stroke-linecap="round" stroke-linejoin="round"/>
<path d="M8.51599 7.37268L3.40039 13.0001H10.6802C11.2955 13.0001 11.8857 12.7556 12.3208 12.3205C12.7559 11.8854 13.0004 11.2952 13.0004 10.6799V10.6001C13.0004 10.3205 12.8954 10.2131 12.7064 10.0061L10.2884 7.36908C10.1757 7.24615 10.0386 7.14806 9.8859 7.08106C9.73317 7.01407 9.56817 6.97964 9.4014 6.97998C9.23463 6.98032 9.06976 7.01542 8.91731 7.08303C8.76487 7.15065 8.62818 7.24929 8.51599 7.37268V7.37268Z" stroke="#172C41" stroke-linecap="round" stroke-linejoin="round"/>
</svg>
