<svg width="43" height="13" viewBox="0 0 43 13" fill="none" xmlns="http://www.w3.org/2000/svg">
<path d="M21.2584 11H19.5973V0.5H21.2584V11ZM25.2404 11H23.5793V3.60352H25.2404V11ZM23.4768 1.68262C23.4768 1.42741 23.5565 1.21549 23.716 1.04688C23.8801 0.878255 24.1125 0.793945 24.4133 0.793945C24.7141 0.793945 24.9465 0.878255 25.1105 1.04688C25.2746 1.21549 25.3566 1.42741 25.3566 1.68262C25.3566 1.93327 25.2746 2.1429 25.1105 2.31152C24.9465 2.47559 24.7141 2.55762 24.4133 2.55762C24.1125 2.55762 23.8801 2.47559 23.716 2.31152C23.5565 2.1429 23.4768 1.93327 23.4768 1.68262ZM30.0633 8.89453L31.6287 3.60352H33.3445L30.7811 11H29.3387L26.7547 3.60352H28.4773L30.0633 8.89453ZM37.9486 11.1367C36.8959 11.1367 36.0414 10.8063 35.3852 10.1455C34.7335 9.48014 34.4076 8.59603 34.4076 7.49316V7.28809C34.4076 6.5498 34.5489 5.89128 34.8314 5.3125C35.1186 4.72917 35.5196 4.27572 36.0346 3.95215C36.5495 3.62858 37.1238 3.4668 37.7572 3.4668C38.7644 3.4668 39.5414 3.78809 40.0883 4.43066C40.6397 5.07324 40.9154 5.98242 40.9154 7.1582V7.82812H36.0824C36.1326 8.4388 36.3354 8.92188 36.6908 9.27734C37.0508 9.63281 37.502 9.81055 38.0443 9.81055C38.8054 9.81055 39.4252 9.50293 39.9037 8.8877L40.7992 9.74219C40.503 10.1842 40.1065 10.5283 39.6098 10.7744C39.1176 11.016 38.5639 11.1367 37.9486 11.1367ZM37.7504 4.7998C37.2947 4.7998 36.9255 4.95931 36.643 5.27832C36.365 5.59733 36.1872 6.04167 36.1098 6.61133H39.2748V6.48828C39.2383 5.93229 39.0902 5.51302 38.8305 5.23047C38.5707 4.94336 38.2107 4.7998 37.7504 4.7998Z" fill="#777777"/>
<circle opacity="0.1" cx="6.5" cy="6.5" r="6.5" fill="#0B7BFF"/>
<circle cx="6.5" cy="6.5" r="3.5" fill="#0B7BFF"/>
</svg>
