<svg width="16" height="18" viewBox="0 0 16 18" fill="none" xmlns="http://www.w3.org/2000/svg">
<mask id="path-1-inside-1_5110_12939" fill="white">
<path d="M14.452 5.30125L9.8 4L5.13438 5.31425L0.795594 4.08344C0.702621 4.05706 0.604798 4.0526 0.509812 4.07041C0.414825 4.08822 0.325263 4.12782 0.248163 4.18609C0.171063 4.24436 0.108526 4.31971 0.0654668 4.40623C0.0224071 4.49275 -2.10465e-06 4.58808 1.48257e-10 4.68472V15.3285C0.000472704 15.4916 0.0538962 15.6501 0.152234 15.7802C0.250571 15.9104 0.388504 16.005 0.545281 16.05L5.13331 17.3516L9.80097 16.0368L14.2067 17.2691C14.2996 17.2951 14.3972 17.2992 14.492 17.2812C14.5867 17.2631 14.676 17.2234 14.7528 17.1651C14.8297 17.1068 14.892 17.0315 14.9348 16.9451C14.9777 16.8587 15 16.7635 15 16.6671V6.02353C14.9996 5.85994 14.9459 5.70094 14.847 5.5706C14.7481 5.44027 14.6095 5.34571 14.452 5.30125ZM4.59375 16.1589L1 15.1394V5.18087L4.59375 6.20038V16.1589ZM9.30047 15.1387L5.59375 16.1828V6.22375L9.30047 5.17962V15.1387ZM14 16.1728L10.3005 15.1381V5.17834L14 6.21306V16.1728Z"/>
</mask>
<path d="M14.452 5.30125L9.8 4L5.13438 5.31425L0.795594 4.08344C0.702621 4.05706 0.604798 4.0526 0.509812 4.07041C0.414825 4.08822 0.325263 4.12782 0.248163 4.18609C0.171063 4.24436 0.108526 4.31971 0.0654668 4.40623C0.0224071 4.49275 -2.10465e-06 4.58808 1.48257e-10 4.68472V15.3285C0.000472704 15.4916 0.0538962 15.6501 0.152234 15.7802C0.250571 15.9104 0.388504 16.005 0.545281 16.05L5.13331 17.3516L9.80097 16.0368L14.2067 17.2691C14.2996 17.2951 14.3972 17.2992 14.492 17.2812C14.5867 17.2631 14.676 17.2234 14.7528 17.1651C14.8297 17.1068 14.892 17.0315 14.9348 16.9451C14.9777 16.8587 15 16.7635 15 16.6671V6.02353C14.9996 5.85994 14.9459 5.70094 14.847 5.5706C14.7481 5.44027 14.6095 5.34571 14.452 5.30125ZM4.59375 16.1589L1 15.1394V5.18087L4.59375 6.20038V16.1589ZM9.30047 15.1387L5.59375 16.1828V6.22375L9.30047 5.17962V15.1387ZM14 16.1728L10.3005 15.1381V5.17834L14 6.21306V16.1728Z" fill="#172C41"/>
<path d="M14.452 5.30125L14.8597 3.85771L14.8561 3.8567L14.452 5.30125ZM9.8 4L10.2041 2.55545L9.79858 2.44203L9.3933 2.55619L9.8 4ZM5.13438 5.31425L4.72501 6.75731L5.13294 6.87303L5.54108 6.75806L5.13438 5.31425ZM0.795594 4.08344L0.386169 5.52648L0.386231 5.5265L0.795594 4.08344ZM1.48257e-10 4.68472H1.5V4.68469L1.48257e-10 4.68472ZM1.48257e-10 15.3285H-1.50001L-1.49999 15.3328L1.48257e-10 15.3285ZM0.545281 16.05L0.131639 17.4918L0.135906 17.4931L0.545281 16.05ZM5.13331 17.3516L4.72394 18.7946L5.13187 18.9103L5.54001 18.7954L5.13331 17.3516ZM9.80097 16.0368L10.205 14.5922L9.79955 14.4788L9.39427 14.5929L9.80097 16.0368ZM14.2067 17.2691L13.8026 18.7137L13.8027 18.7137L14.2067 17.2691ZM15 16.6671H13.5V16.6674L15 16.6671ZM15 6.02353H16.5L16.5 6.01976L15 6.02353ZM4.59375 16.1589L4.18437 17.6019L6.09375 18.1436V16.1589H4.59375ZM1 15.1394H-0.5V16.273L0.590624 16.5824L1 15.1394ZM1 5.18087L1.40938 3.73782L-0.5 3.19615V5.18087H1ZM4.59375 6.20038H6.09375V5.06671L5.00313 4.75732L4.59375 6.20038ZM9.30047 15.1387L9.70717 16.5825L10.8005 16.2745V15.1387H9.30047ZM5.59375 16.1828H4.09375V18.1637L6.00045 17.6266L5.59375 16.1828ZM5.59375 6.22375L5.18705 4.77994L4.09375 5.0879V6.22375H5.59375ZM9.30047 5.17962H10.8005V3.19872L8.89377 3.73581L9.30047 5.17962ZM14 16.1728L13.596 17.6173L15.5 18.1498V16.1728H14ZM10.3005 15.1381H8.80047V16.2761L9.89645 16.5826L10.3005 15.1381ZM10.3005 5.17834L10.7045 3.73378L8.80047 3.20125V5.17834H10.3005ZM14 6.21306H15.5V5.07503L14.404 4.7685L14 6.21306ZM14.8561 3.8567L10.2041 2.55545L9.39594 5.44455L14.048 6.7458L14.8561 3.8567ZM9.3933 2.55619L4.72767 3.87044L5.54108 6.75806L10.2067 5.44381L9.3933 2.55619ZM5.54374 3.87119L1.20496 2.64038L0.386231 5.5265L4.72501 6.75731L5.54374 3.87119ZM1.20502 2.6404C0.888911 2.55071 0.556313 2.53555 0.23336 2.59611L0.786264 5.54472C0.653283 5.56965 0.516331 5.56341 0.386169 5.52648L1.20502 2.6404ZM0.23336 2.59611C-0.0895944 2.65667 -0.394106 2.79129 -0.656245 2.98941L1.15257 5.38277C1.04463 5.46435 0.919244 5.51978 0.786264 5.54472L0.23336 2.59611ZM-0.656245 2.98941C-0.918385 3.18752 -1.13101 3.44373 -1.27741 3.73789L1.40835 5.07457C1.34806 5.19569 1.26051 5.30119 1.15257 5.38277L-0.656245 2.98941ZM-1.27741 3.73789C-1.42382 4.03206 -1.50001 4.35617 -1.5 4.68475L1.5 4.68469C1.5 4.81998 1.46863 4.95344 1.40835 5.07457L-1.27741 3.73789ZM-1.5 4.68472V15.3285H1.5V4.68472H-1.5ZM-1.49999 15.3328C-1.49858 15.8209 -1.33872 16.2952 -1.04447 16.6846L1.34894 14.8758C1.44651 15.005 1.49952 15.1623 1.49999 15.3241L-1.49999 15.3328ZM-1.04447 16.6846C-0.750215 17.074 -0.337481 17.3573 0.13164 17.4918L0.958922 14.6082C1.11449 14.6528 1.25136 14.7467 1.34894 14.8758L-1.04447 16.6846ZM0.135906 17.4931L4.72394 18.7946L5.54269 15.9085L0.954657 14.6069L0.135906 17.4931ZM5.54001 18.7954L10.2077 17.4806L9.39427 14.5929L4.72661 15.9078L5.54001 18.7954ZM9.3969 17.4813L13.8026 18.7137L14.6108 15.8246L10.205 14.5922L9.3969 17.4813ZM13.8027 18.7137C14.1186 18.802 14.4505 18.816 14.7727 18.7547L14.2112 15.8077C14.3439 15.7824 14.4806 15.7882 14.6106 15.8245L13.8027 18.7137ZM14.7727 18.7547C15.0948 18.6933 15.3984 18.5582 15.6596 18.3599L13.846 15.9702C13.9536 15.8886 14.0786 15.8329 14.2112 15.8077L14.7727 18.7547ZM15.6596 18.3599C15.9209 18.1617 16.1327 17.9057 16.2785 17.6119L13.5912 16.2782C13.6512 16.1573 13.7385 16.0518 13.846 15.9702L15.6596 18.3599ZM16.2785 17.6119C16.4243 17.3182 16.5001 16.9946 16.5 16.6667L13.5 16.6674C13.5 16.5324 13.5312 16.3992 13.5912 16.2782L16.2785 17.6119ZM16.5 16.6671V6.02353H13.5V16.6671H16.5ZM16.5 6.01976C16.4988 5.53007 16.338 5.05412 16.042 4.66399L13.652 6.47722C13.5538 6.34775 13.5004 6.1898 13.5 6.0273L16.5 6.01976ZM16.042 4.66399C15.746 4.27386 15.331 3.99082 14.8597 3.85772L14.0443 6.74478C13.8879 6.70061 13.7502 6.60668 13.652 6.47722L16.042 4.66399ZM5.00313 14.7158L1.40938 13.6963L0.590624 16.5824L4.18437 17.6019L5.00313 14.7158ZM2.5 15.1394V5.18087H-0.5V15.1394H2.5ZM0.590624 6.62393L4.18437 7.64343L5.00313 4.75732L1.40938 3.73782L0.590624 6.62393ZM3.09375 6.20038V16.1589H6.09375V6.20038H3.09375ZM8.89377 13.6948L5.18705 14.739L6.00045 17.6266L9.70717 16.5825L8.89377 13.6948ZM7.09375 16.1828V6.22375H4.09375V16.1828H7.09375ZM6.00045 7.66756L9.70717 6.62344L8.89377 3.73581L5.18705 4.77994L6.00045 7.66756ZM7.80047 5.17962V15.1387H10.8005V5.17962H7.80047ZM14.404 14.7282L10.7045 13.6935L9.89645 16.5826L13.596 17.6173L14.404 14.7282ZM11.8005 15.1381V5.17834H8.80047V15.1381H11.8005ZM9.89644 6.62291L13.596 7.65762L14.404 4.7685L10.7045 3.73378L9.89644 6.62291ZM12.5 6.21306V16.1728H15.5V6.21306H12.5Z" fill="#172C41" mask="url(#path-1-inside-1_5110_12939)"/>
<circle cx="12.5003" cy="4.33333" r="2.33333" fill="white"/>
<path d="M12.5 0.833496C11.5721 0.8345 10.6825 1.17284 10.0263 1.7743C9.3702 2.37577 9.0011 3.19123 9 4.04183C8.99889 4.73694 9.24659 5.41318 9.70509 5.96683C9.70509 5.96683 9.80055 6.08204 9.81614 6.09866L12.5 9.00016L15.1851 6.09721C15.1991 6.08175 15.2949 5.96683 15.2949 5.96683L15.2952 5.96595C15.7535 5.41255 16.0011 4.73662 16 4.04183C15.9989 3.19123 15.6298 2.37577 14.9737 1.7743C14.3175 1.17284 13.4279 0.8345 12.5 0.833496ZM12.5 5.2085C12.2483 5.2085 12.0022 5.14007 11.7929 5.01188C11.5836 4.88368 11.4205 4.70147 11.3242 4.48829C11.2278 4.27511 11.2026 4.04054 11.2517 3.81422C11.3008 3.58791 11.4221 3.38003 11.6 3.21687C11.778 3.05371 12.0048 2.9426 12.2517 2.89758C12.4986 2.85256 12.7545 2.87567 12.9871 2.96397C13.2196 3.05227 13.4184 3.20181 13.5582 3.39366C13.6981 3.58552 13.7727 3.81108 13.7727 4.04183C13.7723 4.35113 13.6381 4.64765 13.3995 4.86636C13.1609 5.08507 12.8374 5.20811 12.5 5.2085Z" fill="#172C41"/>
</svg>
