<svg width="27" height="30" viewBox="0 0 27 30" fill="none" xmlns="http://www.w3.org/2000/svg">
<path d="M25.6083 22.7641C24.8028 22.046 24.0976 21.2228 23.5117 20.3166C22.872 19.0658 22.4886 17.6998 22.384 16.2987V12.1723C22.3895 9.97176 21.5913 7.84494 20.1393 6.19144C18.6873 4.53794 16.6814 3.47157 14.4986 3.19269V2.11514C14.4986 1.81939 14.3812 1.53575 14.172 1.32662C13.9629 1.11749 13.6793 1 13.3835 1C13.0877 1 12.8041 1.11749 12.595 1.32662C12.3859 1.53575 12.2684 1.81939 12.2684 2.11514V3.2094C10.1051 3.50838 8.12352 4.5812 6.69059 6.22914C5.25766 7.87709 4.4705 9.9885 4.4749 12.1723V16.2987C4.37028 17.6998 3.98689 19.0658 3.34723 20.3166C2.7716 21.2207 2.07772 22.0438 1.28401 22.7641C1.1949 22.8423 1.12349 22.9387 1.07452 23.0467C1.02556 23.1547 1.00015 23.2719 1 23.3905V24.5266C1 24.7481 1.08801 24.9606 1.24466 25.1172C1.40131 25.2739 1.61377 25.3619 1.83531 25.3619H25.057C25.2785 25.3619 25.491 25.2739 25.6476 25.1172C25.8043 24.9606 25.8923 24.7481 25.8923 24.5266V23.3905C25.8922 23.2719 25.8668 23.1547 25.8178 23.0467C25.7688 22.9387 25.6974 22.8423 25.6083 22.7641ZM2.73745 23.6913C3.51463 22.9405 4.19891 22.0992 4.77561 21.1853C5.58136 19.6746 6.05149 18.0078 6.15388 16.2987V12.1723C6.12075 11.1933 6.28496 10.2177 6.63672 9.30356C6.98849 8.38939 7.52062 7.55535 8.20143 6.85111C8.88224 6.14687 9.69781 5.58684 10.5996 5.20435C11.5013 4.82187 12.4708 4.62476 13.4503 4.62476C14.4298 4.62476 15.3993 4.82187 16.3011 5.20435C17.2029 5.58684 18.0184 6.14687 18.6992 6.85111C19.38 7.55535 19.9122 8.38939 20.2639 9.30356C20.6157 10.2177 20.7799 11.1933 20.7468 12.1723V16.2987C20.8492 18.0078 21.3193 19.6746 22.125 21.1853C22.7017 22.0992 23.386 22.9405 24.1632 23.6913H2.73745Z" fill="white" stroke="white"/>
<path d="M13.4877 28.9997C14.0139 28.9876 14.5188 28.7898 14.9132 28.4413C15.3076 28.0927 15.566 27.6159 15.6428 27.0952H11.249C11.3279 27.6301 11.5985 28.1181 12.0102 28.4684C12.422 28.8187 12.9471 29.0075 13.4877 28.9997V28.9997Z" fill="white" stroke="white"/>
</svg>
