<svg width="16" height="16" viewBox="0 0 16 16" fill="none" xmlns="http://www.w3.org/2000/svg">
<path d="M13.3333 5.33333C14.8061 5.33333 16 4.13943 16 2.66667C16 1.19391 14.8061 0 13.3333 0C11.8606 0 10.6667 1.19391 10.6667 2.66667C10.6667 2.77822 10.6735 2.88816 10.6868 2.99612L4.51788 6.08059C4.03827 5.61791 3.3857 5.33333 2.66667 5.33333C1.19391 5.33333 0 6.52724 0 8C0 9.47276 1.19391 10.6667 2.66667 10.6667C3.3857 10.6667 4.03827 10.3821 4.51788 9.91941L10.6868 13.0039C10.6735 13.1118 10.6667 13.2218 10.6667 13.3333C10.6667 14.8061 11.8606 16 13.3333 16C14.8061 16 16 14.8061 16 13.3333C16 11.8606 14.8061 10.6667 13.3333 10.6667C12.6143 10.6667 11.9617 10.9512 11.4821 11.4139L5.31318 8.32945C5.32648 8.2215 5.33333 8.11155 5.33333 8C5.33333 7.88845 5.32648 7.7785 5.31318 7.67055L11.4821 4.58608C11.9617 5.04875 12.6143 5.33333 13.3333 5.33333Z" fill="#172C41"/>
</svg>
