<svg width="27" height="16" viewBox="0 0 27 16" fill="none" xmlns="http://www.w3.org/2000/svg">
<path fill-rule="evenodd" clip-rule="evenodd" d="M2.28571 3.42857V12.5714C2.28571 13.2026 2.79739 13.7143 3.42857 13.7143H18.9945C19.3281 13.7143 19.6451 13.5685 19.8622 13.3152L23.7806 8.74376C24.1474 8.31577 24.1474 7.68423 23.7806 7.25624L19.8622 2.68481C19.6451 2.4315 19.3281 2.28571 18.9945 2.28571H3.42857C2.79739 2.28571 2.28571 2.79739 2.28571 3.42857ZM0 3.42857V12.5714C0 14.465 1.53502 16 3.42857 16H18.9945C19.9954 16 20.9463 15.5626 21.5977 14.8027L25.516 10.2313C26.6166 8.94732 26.6166 7.05268 25.516 5.76872L21.5977 1.19729C20.9463 0.437358 19.9954 0 18.9945 0H3.42857C1.53502 0 0 1.53502 0 3.42857Z" fill="#172C41"/>
<path fill-rule="evenodd" clip-rule="evenodd" d="M17.1429 9.14286C17.774 9.14286 18.2857 8.63118 18.2857 8C18.2857 7.36882 17.774 6.85714 17.1429 6.85714C16.5117 6.85714 16 7.36882 16 8C16 8.63118 16.5117 9.14286 17.1429 9.14286ZM17.1429 11.4286C19.0364 11.4286 20.5714 9.89355 20.5714 8C20.5714 6.10645 19.0364 4.57143 17.1429 4.57143C15.2493 4.57143 13.7143 6.10645 13.7143 8C13.7143 9.89355 15.2493 11.4286 17.1429 11.4286Z" fill="#172C41"/>
</svg>
