<svg width="11" height="7" viewBox="0 0 11 7" fill="none" xmlns="http://www.w3.org/2000/svg">
<path fill-rule="evenodd" clip-rule="evenodd" d="M1.1049 1.1049C1.13806 1.07165 1.17747 1.04527 1.22084 1.02727C1.26422 1.00927 1.31073 1 1.35769 1C1.40465 1 1.45116 1.00927 1.49454 1.02727C1.53791 1.04527 1.57732 1.07165 1.61048 1.1049L5.64231 5.13744L9.67414 1.1049C9.70734 1.0717 9.74675 1.04537 9.79012 1.0274C9.83349 1.00943 9.87998 1.00019 9.92693 1.00019C9.97388 1.00019 10.0204 1.00943 10.0637 1.0274C10.1071 1.04537 10.1465 1.0717 10.1797 1.1049C10.2129 1.13809 10.2393 1.17751 10.2572 1.22088C10.2752 1.26425 10.2844 1.31074 10.2844 1.35769C10.2844 1.40464 10.2752 1.45113 10.2572 1.4945C10.2393 1.53787 10.2129 1.57729 10.1797 1.61048L5.8951 5.8951C5.86194 5.92835 5.82253 5.95473 5.77916 5.97273C5.73578 5.99073 5.68927 6 5.64231 6C5.59535 6 5.54884 5.99073 5.50546 5.97273C5.46209 5.95473 5.42268 5.92835 5.38952 5.8951L1.1049 1.61048C1.07165 1.57732 1.04527 1.53791 1.02727 1.49454C1.00927 1.45116 1 1.40465 1 1.35769C1 1.31073 1.00927 1.26422 1.02727 1.22084C1.04527 1.17747 1.07165 1.13806 1.1049 1.1049Z" fill="white" stroke="white"/>
</svg>
