<svg width="14" height="16" viewBox="0 0 14 16" fill="none" xmlns="http://www.w3.org/2000/svg">
<path fill-rule="evenodd" clip-rule="evenodd" d="M11.4286 6.85714C12.6909 6.85714 13.7143 7.88049 13.7143 9.14286V13.7143C13.7143 14.9767 12.6909 16 11.4286 16H2.28571C1.02335 16 0 14.9767 0 13.7143V9.14286C0 7.88049 1.02335 6.85714 2.28571 6.85714V4.57143C2.28571 2.0467 4.33241 0 6.85714 0C9.38187 0 11.4286 2.0467 11.4286 4.57143V6.85714ZM6.85714 1.52381C8.5403 1.52381 9.90476 2.88827 9.90476 4.57143V6.85714H3.80952V4.57143C3.80952 2.88827 5.17399 1.52381 6.85714 1.52381ZM11.4286 8.38095H2.28571C1.86493 8.38095 1.52381 8.72207 1.52381 9.14286V13.7143C1.52381 14.1351 1.86493 14.4762 2.28571 14.4762H11.4286C11.8494 14.4762 12.1905 14.1351 12.1905 13.7143V9.14286C12.1905 8.72207 11.8494 8.38095 11.4286 8.38095Z" fill="#172C41"/>
</svg>
