<svg width="15" height="15" viewBox="0 0 15 15" fill="none" xmlns="http://www.w3.org/2000/svg">
<path d="M7.5 14.2666C3.35294 14.2666 0 11.1372 0 7.2666C0 3.39601 3.35294 0.266602 7.5 0.266602C11.6471 0.266602 15 3.39601 15 7.2666C15 11.1372 11.6471 14.2666 7.5 14.2666ZM7.5 1.09013C3.83823 1.09013 0.882353 3.84895 0.882353 7.2666C0.882353 10.6842 3.83823 13.4431 7.5 13.4431C11.1618 13.4431 14.1176 10.6842 14.1176 7.2666C14.1176 3.84895 11.1618 1.09013 7.5 1.09013Z" fill="#777777"/>
<path d="M5.20577 5.04323C5.33812 4.71382 5.47047 4.46676 5.73518 4.26087C5.95577 4.05499 6.22047 3.89029 6.57342 3.76676C6.92636 3.64323 7.2793 3.60205 7.67636 3.60205C7.98518 3.60205 8.29401 3.64323 8.55871 3.72558C8.82342 3.80793 9.08812 3.93146 9.30871 4.09617C9.5293 4.26087 9.70577 4.46676 9.79401 4.71381C9.92636 4.96087 9.97048 5.24911 9.97048 5.53734C9.97048 5.94911 9.88224 6.27852 9.70577 6.56676C9.5293 6.85499 9.26459 7.10205 8.99989 7.39028L8.42636 7.92558C8.29401 8.04911 8.16165 8.17264 8.11753 8.29617C8.0293 8.4197 7.98518 8.5844 7.98518 8.74911C7.94106 8.91381 7.94106 9.03734 7.94106 9.36676H7.23518C7.23518 9.03734 7.23518 8.91381 7.2793 8.66676C7.32342 8.46087 7.41165 8.25499 7.49989 8.04911C7.58812 7.8844 7.72048 7.7197 7.89695 7.55499C8.07342 7.39029 8.29401 7.22558 8.51459 6.97852C8.73518 6.77264 8.91165 6.56676 9.04401 6.36087C9.17636 6.15499 9.2646 5.86676 9.2646 5.6197C9.2646 5.41381 9.22048 5.20793 9.13224 5.04323C9.04401 4.87852 8.91165 4.71382 8.7793 4.59029C8.64695 4.46676 8.47048 4.3844 8.24989 4.30205C8.0293 4.2197 7.85283 4.17852 7.63224 4.17852C7.32342 4.17852 7.05871 4.2197 6.83812 4.34323C6.61753 4.42558 6.39695 4.59029 6.26459 4.75499C6.13224 4.9197 5.99989 5.12558 5.91165 5.37264C5.82342 5.6197 5.73518 5.74323 5.73518 6.03146H5.0293C5.0293 5.66087 5.07341 5.37264 5.20577 5.04323ZM7.94106 10.1491V10.9726H7.05871V10.1491H7.94106Z" fill="#777777"/>
</svg>
