<svg width="15" height="13" viewBox="0 0 15 13" fill="none" xmlns="http://www.w3.org/2000/svg">
<path d="M14.0625 10.7625H2.2375V1.1375C2.2375 1.06188 2.17563 1 2.1 1H1.1375C1.06188 1 1 1.06188 1 1.1375V11.8625C1 11.9381 1.06188 12 1.1375 12H14.0625C14.1381 12 14.2 11.9381 14.2 11.8625V10.9C14.2 10.8244 14.1381 10.7625 14.0625 10.7625ZM4.05594 8.11047C4.10922 8.16375 4.19516 8.16375 4.25016 8.11047L6.62719 5.74547L8.82031 7.95234C8.87359 8.00563 8.96125 8.00563 9.01453 7.95234L13.748 3.22063C13.8013 3.16734 13.8013 3.07969 13.748 3.02641L13.0673 2.34578C13.0415 2.32019 13.0066 2.30584 12.9702 2.30584C12.9339 2.30584 12.899 2.32019 12.8731 2.34578L8.92 6.29719L6.73031 4.09375C6.70447 4.06816 6.66957 4.05381 6.6332 4.05381C6.59684 4.05381 6.56194 4.06816 6.53609 4.09375L3.37703 7.23391C3.35144 7.25975 3.33709 7.29465 3.33709 7.33102C3.33709 7.36738 3.35144 7.40228 3.37703 7.42812L4.05594 8.11047Z" fill="black" stroke="black" stroke-width="0.5"/>
</svg>
