<svg width="16" height="16" viewBox="0 0 16 16" fill="none" xmlns="http://www.w3.org/2000/svg">
<path fill-rule="evenodd" clip-rule="evenodd" d="M11.3333 1.5C12.5833 1.5 13.8333 2 14.8333 2.91667L15.5 2.25C14.3333 1.08333 12.8333 0.5 11.3333 0.5C9.83333 0.5 8.33333 1.08333 7.16667 2.25L7.83333 2.91667C8.83333 2 10.0833 1.5 11.3333 1.5ZM8.58268 3.58398L9.24935 4.25065C9.83268 3.66732 10.5827 3.41732 11.3327 3.41732C12.0827 3.41732 12.8327 3.66732 13.416 4.25065L14.0827 3.58398C13.3327 2.83398 12.3327 2.41732 11.3327 2.41732C10.3327 2.41732 9.33268 2.83398 8.58268 3.58398ZM13.8333 8.83333H12.1667V5.5H10.5V8.83333H2.16667C1.25 8.83333 0.5 9.58333 0.5 10.5V13.8333C0.5 14.75 1.25 15.5 2.16667 15.5H13.8333C14.75 15.5 15.5 14.75 15.5 13.8333V10.5C15.5 9.58333 14.75 8.83333 13.8333 8.83333ZM13.8333 13.8333H2.16667V10.5H13.8333V13.8333ZM3 11.3333H4.66667V13H3V11.3333ZM5.91667 11.3333H7.58333V13H5.91667V11.3333ZM8.83333 11.3333H10.5V13H8.83333V11.3333Z" fill="#FFFFFF"/>
</svg>
