<svg width="27" height="36" viewBox="0 0 27 36" fill="none" xmlns="http://www.w3.org/2000/svg">
<path d="M18.1646 10.3398H26.3532V12.8465H18.1646V10.3398Z" fill="black"/>
<path d="M18.1646 17.8594H24.0136V20.366H18.1646V17.8594Z" fill="black"/>
<path d="M15.825 26.6318C15.825 28.4933 15.0856 30.2786 13.7693 31.5949C12.453 32.9112 10.6677 33.6507 8.8062 33.6507C6.94469 33.6507 5.15941 32.9112 3.84313 31.5949C2.52684 30.2786 1.78735 28.4933 1.78735 26.6318H15.825Z" fill="black"/>
<path d="M26.6068 25.379H17.7312C17.4647 23.5403 16.6222 21.8334 15.3248 20.5035V6.57912C15.3248 4.91711 14.6645 3.32317 13.4893 2.14795C12.3141 0.972731 10.7202 0.3125 9.05815 0.3125C7.39614 0.3125 5.8022 0.972731 4.62698 2.14795C3.45176 3.32317 2.79153 4.91711 2.79153 6.57912V20.5035C1.82205 21.4928 1.10077 22.6978 0.68681 24.0196C0.272847 25.3415 0.177981 26.7426 0.409985 28.1082C0.641989 29.4737 1.19426 30.7649 2.02154 31.8758C2.84882 32.9868 3.92757 33.8859 5.16938 34.4995C6.41119 35.1132 7.78073 35.4238 9.16575 35.406C10.5508 35.3882 11.9119 35.0425 13.1375 34.3972C14.3632 33.7519 15.4185 32.8253 16.2169 31.6935C17.0154 30.5616 17.5343 29.2567 17.7312 27.8856H26.6068V25.379ZM9.05815 32.8989C7.78946 32.9007 6.55018 32.5169 5.50463 31.7983C4.45907 31.0797 3.65663 30.0603 3.20369 28.8752C2.75075 27.6901 2.66872 26.3954 2.96847 25.1626C3.26821 23.9298 3.93558 22.8173 4.88208 21.9724L5.29818 21.5977V6.57912C5.29818 5.58191 5.69432 4.62555 6.39945 3.92042C7.10458 3.21529 8.06095 2.81915 9.05815 2.81915C10.0554 2.81915 11.0117 3.21529 11.7169 3.92042C12.422 4.62555 12.8181 5.58191 12.8181 6.57912V21.5977L13.2342 21.9724C14.1807 22.8173 14.8481 23.9298 15.1478 25.1626C15.4476 26.3954 15.3656 27.6901 14.9126 28.8752C14.4597 30.0603 13.6572 31.0797 12.6117 31.7983C11.5661 32.5169 10.3268 32.9007 9.05815 32.8989Z" fill="black"/>
</svg>
