<svg width="24" height="19" viewBox="0 0 24 19" fill="none" xmlns="http://www.w3.org/2000/svg">
<path d="M2.56386 4.771C4.78222 2.86629 6.53455 1.3603 11.29 4.04721C13.5744 5.33734 15.4169 5.82494 16.9495 5.8224C19.6352 5.8224 21.3761 4.32911 22.8808 3.03771C23.1391 2.81303 23.2997 2.49659 23.3286 2.15548C23.3575 1.81438 23.2525 1.47542 23.0357 1.21046C22.93 1.08044 22.7992 0.972949 22.6512 0.894341C22.5032 0.815734 22.341 0.767607 22.174 0.752808C22.0071 0.73801 21.8389 0.756839 21.6794 0.808183C21.5199 0.859528 21.3722 0.942344 21.2453 1.05173C19.0282 2.95899 17.2746 4.46498 12.5192 1.77552C6.23615 -1.77105 3.29273 0.755867 0.928347 2.78756C0.670259 3.01242 0.509878 3.32895 0.481196 3.67005C0.452514 4.01115 0.557787 4.35001 0.7747 4.61482C0.880503 4.74461 1.01127 4.85186 1.15926 4.93023C1.30725 5.00859 1.46945 5.05647 1.63627 5.07103C1.80309 5.08559 1.97114 5.06654 2.13047 5.01501C2.2898 4.96347 2.43717 4.8805 2.56386 4.771ZM21.2453 7.53665C19.0282 9.44136 17.2746 10.9499 12.5192 8.26044C6.23615 4.71132 3.29273 7.23951 0.928347 9.26993C0.670259 9.4948 0.509878 9.81132 0.481196 10.1524C0.452514 10.4935 0.557787 10.8324 0.7747 11.0972C0.880321 11.2272 1.01095 11.3346 1.15884 11.4132C1.30674 11.4918 1.4689 11.5399 1.63573 11.5547C1.80256 11.5695 1.97066 11.5507 2.13008 11.4994C2.2895 11.4481 2.43701 11.3653 2.56386 11.2559C4.78222 9.34993 6.53455 7.84394 11.29 10.5296C13.5744 11.8223 15.4169 12.3073 16.9495 12.3073C19.6352 12.3073 21.3761 10.814 22.8808 9.52009C23.1393 9.2958 23.3001 8.97954 23.329 8.63855C23.3579 8.29755 23.2527 7.95873 23.0357 7.6941C22.93 7.56403 22.7992 7.4565 22.6512 7.37791C22.5031 7.29932 22.3408 7.25125 22.1738 7.23657C22.0068 7.22189 21.8386 7.24088 21.6791 7.29243C21.5196 7.34397 21.3721 7.42702 21.2453 7.53665ZM21.2453 14.0203C19.0282 15.9275 17.2746 17.4335 12.5192 14.7466C6.23615 11.1975 3.29273 13.7244 0.928347 15.7561C0.670259 15.981 0.509878 16.2975 0.481196 16.6386C0.452514 16.9797 0.557787 17.3186 0.7747 17.5834C0.880399 17.7133 1.01112 17.8207 1.15912 17.8992C1.30711 17.9776 1.46935 18.0256 1.63622 18.0401C1.80309 18.0547 1.97119 18.0356 2.13054 17.984C2.28989 17.9323 2.43724 17.8492 2.56386 17.7396C4.78222 15.8348 6.53455 14.3301 11.29 17.0158C13.5744 18.3059 15.4169 18.7935 16.9495 18.7935C19.6352 18.7935 21.3761 17.2977 22.8808 16.0063C23.1391 15.7816 23.2997 15.4651 23.3286 15.124C23.3575 14.7829 23.2525 14.444 23.0357 14.179C22.9299 14.0491 22.7991 13.9418 22.6511 13.8633C22.5031 13.7848 22.3409 13.7367 22.174 13.7219C22.0071 13.7071 21.839 13.7259 21.6795 13.7771C21.5199 13.8284 21.3723 13.9111 21.2453 14.0203Z" fill="#222222"/>
</svg>
