<svg width="24" height="36" viewBox="0 0 24 36" fill="none" xmlns="http://www.w3.org/2000/svg">
<path d="M21.5146 15.5738L12.8984 0.75536C12.7733 0.565861 12.6082 0.411377 12.4167 0.304784C12.2252 0.198192 12.0129 0.142578 11.7974 0.142578C11.582 0.142578 11.3697 0.198192 11.1782 0.304784C10.9867 0.411377 10.8215 0.565861 10.6965 0.75536L2.04125 15.644C0.838795 17.7389 0.168989 20.1391 0.0993652 22.6026C0.0993652 25.9534 1.33184 29.167 3.52565 31.5363C5.71947 33.9057 8.69492 35.2368 11.7974 35.2368C14.9 35.2368 17.8754 33.9057 20.0692 31.5363C22.263 29.167 23.4955 25.9534 23.4955 22.6026C23.4208 20.112 22.7374 17.6871 21.5146 15.5738ZM11.7974 32.4292C9.38532 32.4259 7.07288 31.3895 5.36725 29.5474C3.66162 27.7053 2.70203 25.2078 2.69894 22.6026C2.76802 20.6396 3.31401 18.7306 4.28208 17.0675L5.49738 14.9758L18.5914 29.1177C17.741 30.1583 16.6955 30.9918 15.5242 31.5629C14.3529 32.1341 13.0826 32.4298 11.7974 32.4306V32.4292Z" fill="black"/>
</svg>
