<svg width="36" height="36" viewBox="0 0 36 36" fill="none" xmlns="http://www.w3.org/2000/svg">
<path d="M34.2104 16.624H32.4907C31.5204 16.624 30.736 17.254 30.736 18.0295C30.736 18.8034 31.5204 19.4315 32.4907 19.4315H34.2104C35.179 19.4315 35.9651 18.8051 35.9651 18.0295C35.9651 17.2557 35.1772 16.624 34.2104 16.624ZM18.418 8.37862C17.1495 8.37468 15.8927 8.62162 14.7201 9.10523C13.5474 9.58884 12.4819 10.2996 11.585 11.1965C10.688 12.0935 9.97727 13.159 9.49366 14.3316C9.01005 15.5043 8.76311 16.7611 8.76705 18.0295C8.76705 23.3832 13.0643 27.6804 18.418 27.6804C23.7698 27.6804 28.0689 23.3832 28.0689 18.0295C28.0689 12.6759 23.7681 8.37862 18.418 8.37862ZM6.13498 18.0295C6.13498 17.2557 5.34712 16.624 4.38027 16.624H2.62556C1.65521 16.624 0.87085 17.254 0.87085 18.0295C0.87085 18.8034 1.65521 19.4315 2.62556 19.4315H4.38027C5.34712 19.4315 6.13498 18.8034 6.13498 18.0295ZM18.418 5.74656C19.1918 5.74656 19.82 4.9622 19.82 3.99184V2.23713C19.82 1.26678 19.1918 0.482422 18.418 0.482422C17.6424 0.482422 17.0124 1.26678 17.0124 2.23713V3.99184C17.0124 4.9622 17.6424 5.74656 18.418 5.74656ZM18.418 30.3125C17.6424 30.3125 17.0124 31.0969 17.0124 32.0672V33.8219C17.0124 34.7923 17.6424 35.5766 18.418 35.5766C19.1918 35.5766 19.82 34.7923 19.82 33.8219V32.0672C19.82 31.0969 19.1918 30.3125 18.418 30.3125ZM31.3414 7.09066C32.0275 6.40457 32.1381 5.40439 31.5906 4.85692C31.0431 4.30945 30.0412 4.42175 29.3586 5.10784L28.1303 6.33438C27.4442 7.02048 27.3337 8.02066 27.8811 8.56813C28.4286 9.1156 29.4305 9.0033 30.1149 8.31721L31.3414 7.09066ZM6.72106 27.7384L5.49276 28.9684C4.80667 29.6545 4.69612 30.6512 5.24359 31.1986C5.79106 31.7461 6.793 31.6373 7.47558 30.9512L8.70388 29.7247C9.38997 29.0386 9.50052 28.0384 8.95305 27.4892C8.40558 26.94 7.40364 27.0558 6.72106 27.7384ZM7.47734 5.10609C6.793 4.41999 5.79106 4.30769 5.24359 4.85516C4.69612 5.40263 4.80842 6.40457 5.491 7.09066L6.7193 8.31721C7.40539 9.0033 8.40383 9.1156 8.9513 8.56813C9.49877 8.02066 9.38822 7.01872 8.70388 6.33438L7.47734 5.10609ZM28.1285 29.7264L29.3568 30.953C30.0429 31.6391 31.0414 31.7479 31.5888 31.2039C32.1363 30.6564 32.0258 29.6545 31.3397 28.9702L30.1131 27.7436C29.427 27.0575 28.4268 26.9452 27.8776 27.4927C27.3284 28.0402 27.4424 29.0403 28.1285 29.7264Z" fill="black"/>
</svg>
