<svg width="29" height="35" viewBox="0 0 29 35" fill="none" xmlns="http://www.w3.org/2000/svg">
<path d="M20.3183 17.4907C20.3183 17.863 20.1704 18.22 19.9071 18.4833C19.6439 18.7466 19.2868 18.8945 18.9145 18.8945C18.5422 18.8945 18.1852 18.7466 17.9219 18.4833C17.6586 18.22 17.5107 17.863 17.5107 17.4907C17.5107 17.1184 17.6586 16.7613 17.9219 16.4981C18.1852 16.2348 18.5422 16.0869 18.9145 16.0869C19.2868 16.0869 19.6439 16.2348 19.9071 16.4981C20.1704 16.7613 20.3183 17.1184 20.3183 17.4907V17.4907Z" fill="black"/>
<path d="M13.5747 0.679571C13.3711 0.638881 13.161 0.643851 12.9596 0.694125C12.7582 0.744398 12.5704 0.838723 12.4098 0.970303C12.2492 1.10188 12.1198 1.26744 12.0309 1.45505C11.942 1.64267 11.8959 1.84766 11.8958 2.05526V32.9298C11.8959 33.1374 11.942 33.3424 12.0309 33.53C12.1198 33.7176 12.2492 33.8831 12.4098 34.0147C12.5704 34.1463 12.7582 34.2406 12.9596 34.2909C13.161 34.3412 13.3711 34.3461 13.5747 34.3055L27.6123 31.4979C27.9305 31.4343 28.2167 31.2625 28.4225 31.0117C28.6282 30.7609 28.7408 30.4466 28.741 30.1222V4.8628C28.7408 4.5384 28.6282 4.22408 28.4225 3.97328C28.2167 3.72249 27.9305 3.55069 27.6123 3.48711L13.5747 0.679571V0.679571ZM14.7033 31.2172V3.76786L25.9334 6.01389V28.9711L14.7033 31.2172Z" fill="black"/>
<path d="M9.08814 31.5259V28.7184H3.47307V6.26652H9.08814V3.45898H2.0693C1.69699 3.45898 1.33994 3.60688 1.07668 3.87014C0.813424 4.1334 0.665527 4.49045 0.665527 4.86275V30.1222C0.665527 30.4945 0.813424 30.8515 1.07668 31.1148C1.33994 31.378 1.69699 31.5259 2.0693 31.5259H9.08814Z" fill="black"/>
</svg>
